Coordinates
version=1
nRows=15
nColumns=27
inDegrees=yes

Units are S.I. units (second, meters, Newtons, ...)
If the header above contains a line with 'inDegrees', this indicates whether rotational values are in degrees (yes) or radians (no).

endheader
time	pelvis_rotation	pelvis_tilt	pelvis_list	pelvis_tx	pelvis_ty	pelvis_tz	hip_flexion_r	hip_adduction_r	hip_rotation_r	knee_angle_r	knee_rotation_r	knee_adduction_r	knee_angle_r_beta	ankle_angle_r	subtalar_angle_r	mtp_angle_r	hip_flexion_l	hip_adduction_l	hip_rotation_l	knee_angle_l	knee_rotation_l	knee_adduction_l	knee_angle_l_beta	ankle_angle_l	subtalar_angle_l	mtp_angle_l
      4.65500000	      5.43567828	    -42.38377321	      5.79657583	     -0.05145154	      0.56683546	     -1.15878673	    121.30817329	    -45.80235551	      9.87946227	     90.00893144	      0.00000000	      0.00000000	      1.57095221	      8.83795333	      0.00000000	      0.00000000	    115.75539271	    -35.95454489	      3.01242084	     83.67598122	      0.00000000	      0.00000000	      1.46042138	     -0.65462243	      0.00000000	      0.00000000
      4.66000000	      5.40557807	    -42.40225403	      5.78015072	     -0.05156502	      0.56563707	     -1.15885206	    121.55982653	    -45.80295025	     10.02993572	     90.18438275	      0.00000000	      0.00000000	      1.57401441	      8.85269502	      0.00000000	      0.00000000	    115.99108642	    -36.00134359	      3.14561976	     83.87607090	      0.00000000	      0.00000000	      1.46391360	     -0.60194232	      0.00000000	      0.00000000
      4.66500000	      4.92005960	    -42.35156937	      5.70261674	     -0.05183143	      0.56459246	     -1.15877723	    121.67878004	    -45.25958113	     10.23775954	     90.30889870	      0.00000000	      0.00000000	      1.57618763	      8.95691755	      0.00000000	      0.00000000	    116.01960931	    -36.50864820	      3.13857241	     84.04650102	      0.00000000	      0.00000000	      1.46688817	     -0.52306978	      0.00000000	      0.00000000
      4.67000000	      5.27877997	    -42.44485250	      5.72277313	     -0.05177387	      0.56324433	     -1.15895016	    122.04644170	    -45.74641921	     10.31085057	     90.53176382	      0.00000000	      0.00000000	      1.58007736	      8.88874080	      0.00000000	      0.00000000	    116.46878287	    -36.16462029	      3.41244879	     84.27805682	      0.00000000	      0.00000000	      1.47092958	     -0.50517271	      0.00000000	      0.00000000
      4.67500000	      5.31181762	    -42.51458364	      5.75533581	     -0.05186001	      0.56198802	     -1.15901033	    122.40470884	    -45.78927969	     10.51116353	     90.72655131	      0.00000000	      0.00000000	      1.58347704	      8.93716934	      0.00000000	      0.00000000	    116.74850812	    -36.17884438	      3.51890932	     84.47903874	      0.00000000	      0.00000000	      1.47443737	     -0.45178762	      0.00000000	      0.00000000
      4.68000000	      5.26659569	    -42.51545594	      5.73466764	     -0.05194867	      0.56073051	     -1.15903213	    122.64115614	    -45.77839793	     10.66178755	     90.91129309	      0.00000000	      0.00000000	      1.58670139	      8.97926821	      0.00000000	      0.00000000	    116.97460244	    -36.25016113	      3.65442124	     84.68384916	      0.00000000	      0.00000000	      1.47801199	     -0.40500284	      0.00000000	      0.00000000
      4.68500000	      5.26651648	    -42.52012066	      5.71266854	     -0.05200910	      0.55946129	     -1.15906512	    122.88207792	    -45.82653681	     10.79874207	     91.10252499	      0.00000000	      0.00000000	      1.59003902	      9.02419631	      0.00000000	      0.00000000	    117.21951268	    -36.27257991	      3.80706139	     84.88961822	      0.00000000	      0.00000000	      1.48160334	     -0.35366816	      0.00000000	      0.00000000
      4.69000000	      5.20523934	    -42.56208658	      5.70361440	     -0.05211807	      0.55817947	     -1.15906395	    123.17526950	    -45.77570064	     10.97489979	     91.29176079	      0.00000000	      0.00000000	      1.59334181	      9.06392672	      0.00000000	      0.00000000	    117.48067098	    -36.37784886	      3.92569133	     85.09235184	      0.00000000	      0.00000000	      1.48514171	     -0.31962340	      0.00000000	      0.00000000
      4.69500000	      5.18195480	    -42.58574005	      5.68770426	     -0.05217268	      0.55686062	     -1.15905523	    123.44946466	    -45.78661920	     11.13128692	     91.49189198	      0.00000000	      0.00000000	      1.59683475	      9.11190175	      0.00000000	      0.00000000	    117.74472490	    -36.44085689	      4.06715829	     85.30239069	      0.00000000	      0.00000000	      1.48880758	     -0.28224470	      0.00000000	      0.00000000
      4.70000000	      5.17388013	    -42.58679952	      5.66537172	     -0.05223211	      0.55552823	     -1.15903982	    123.69749449	    -45.81931847	     11.28072364	     91.69125302	      0.00000000	      0.00000000	      1.60031426	      9.15257205	      0.00000000	      0.00000000	    118.00016776	    -36.48433608	      4.22215124	     85.51209812	      0.00000000	      0.00000000	      1.49246766	     -0.25713347	      0.00000000	      0.00000000
      4.70500000	      5.13223107	    -42.61011470	      5.65352432	     -0.05229465	      0.55417190	     -1.15899216	    123.98111001	    -45.79625079	     11.45456166	     91.90078292	      0.00000000	      0.00000000	      1.60397125	      9.21133417	      0.00000000	      0.00000000	    118.25941874	    -36.57644815	      4.35481653	     85.71825377	      0.00000000	      0.00000000	      1.49606576	     -0.23151935	      0.00000000	      0.00000000
      4.71000000	      5.12044061	    -42.61995603	      5.63314529	     -0.05233678	      0.55278390	     -1.15894663	    124.24880043	    -45.81906073	     11.61569703	     92.11346886	      0.00000000	      0.00000000	      1.60768332	      9.25604013	      0.00000000	      0.00000000	    118.52905705	    -36.63202467	      4.51211766	     85.93136858	      0.00000000	      0.00000000	      1.49978531	     -0.20562143	      0.00000000	      0.00000000
      4.71500000	      5.08776431	    -42.59471255	      5.60908487	     -0.05233680	      0.55136123	     -1.15889124	    124.48455932	    -45.82416647	     11.78081310	     92.33131220	      0.00000000	      0.00000000	      1.61148540	      9.32219189	      0.00000000	      0.00000000	    118.76089000	    -36.71654217	      4.66113498	     86.14973611	      0.00000000	      0.00000000	      1.50359654	     -0.18171982	      0.00000000	      0.00000000
      4.72000000	      5.07825686	    -42.61014050	      5.58632824	     -0.05235075	      0.54993252	     -1.15882217	    124.76096276	    -45.84703252	     11.94950121	     92.55376289	      0.00000000	      0.00000000	      1.61536790	      9.37018540	      0.00000000	      0.00000000	    119.04752463	    -36.77299652	      4.82683138	     86.36688939	      0.00000000	      0.00000000	      1.50738658	     -0.17043271	      0.00000000	      0.00000000
      4.72500000	      5.05876267	    -42.62744772	      5.56735614	     -0.05233724	      0.54849403	     -1.15873850	    125.04459464	    -45.85221195	     12.12455317	     92.77945620	      0.00000000	      0.00000000	      1.61930699	      9.42395133	      0.00000000	      0.00000000	    119.32920644	    -36.85133900	      4.98059438	     86.58367443	      0.00000000	      0.00000000	      1.51117020	     -0.14268616	      0.00000000	      0.00000000
